<?xml version="1.0" standalone="no"?>
<!DOCTYPE svg PUBLIC "-//W3C//DTD SVG 20010904//EN"
 "http://www.w3.org/TR/2001/REC-SVG-20010904/DTD/svg10.dtd">
<svg version="1.0" xmlns="http://www.w3.org/2000/svg"
 width="500.000000pt" height="500.000000pt" viewBox="0 0 500.000000 500.000000"
 preserveAspectRatio="xMidYMid meet">
<metadata>
Created by potrace 1.14, written by Peter Selinger 2001-2017
</metadata>
<g transform="translate(0.000000,500.000000) scale(0.100000,-0.100000)"
fill="#000000" stroke="none">
<path d="M2191 4985 c-571 -76 -1067 -320 -1466 -720 -395 -396 -635 -891
-711 -1465 -22 -173 -15 -534 14 -705 98 -564 370 -1069 772 -1433 278 -252
582 -430 928 -542 262 -85 486 -120 772 -120 286 0 510 35 772 120 763 248
1352 832 1602 1590 100 304 130 509 123 845 -8 406 -76 688 -252 1050 -193
399 -488 732 -878 993 -120 80 -364 203 -509 256 -119 44 -337 99 -478 122
-144 22 -548 28 -689 9z m1382 -1049 c103 -24 167 -85 167 -160 0 -36 -36
-126 -66 -167 -14 -18 -56 -95 -93 -169 -38 -74 -91 -175 -118 -225 -72 -129
-166 -316 -161 -320 9 -9 119 63 285 188 98 73 201 149 228 169 71 51 189 108
224 108 44 0 163 -48 188 -75 43 -48 53 -190 21 -297 -14 -48 -138 -199 -243
-296 -148 -136 -330 -240 -520 -297 -49 -15 -101 -30 -115 -35 -23 -7 -22 -8
20 -19 132 -36 273 -177 377 -377 46 -88 183 -483 183 -527 0 -16 -10 -38 -24
-52 -26 -26 -140 -65 -190 -65 -47 0 -134 57 -292 190 -274 231 -406 323 -495
344 -25 5 -28 1 -113 -207 -152 -366 -174 -391 -346 -391 -109 0 -160 19 -204
77 -50 65 -32 176 119 734 225 833 295 1095 325 1217 38 153 77 269 131 381
43 92 73 118 133 120 34 1 43 6 61 36 13 18 31 42 41 51 23 20 114 57 169 68
65 13 246 11 308 -4z m-1263 -71 c158 -12 215 -62 215 -190 0 -60 -5 -81 -34
-140 -60 -121 -194 -228 -312 -249 -71 -12 -248 -75 -288 -102 -41 -27 -112
-126 -165 -231 -35 -71 -60 -175 -43 -185 28 -18 103 -19 212 -4 202 28 234
21 221 -48 -10 -50 -69 -163 -119 -226 -78 -97 -166 -137 -367 -163 l-94 -13
-63 -119 c-86 -164 -131 -303 -105 -319 26 -16 279 -26 389 -15 171 16 181 16
203 -7 16 -17 26 -63 29 -136 1 -10 19 -27 41 -38 46 -23 48 -33 19 -95 -33
-71 -129 -167 -206 -208 -86 -45 -254 -84 -425 -98 -131 -11 -387 0 -487 22
-70 15 -150 60 -185 103 l-31 38 2 152 c5 485 145 982 440 1571 65 128 72 155
83 289 12 149 27 182 93 214 85 40 398 140 527 167 117 25 299 45 345 39 11
-2 58 -6 105 -9z"/>
</g>
</svg>
